PathFileType	4	(X/Y/Z)	D:\TRACE\spotREDO_2-26-24\spot_Both_Motion_3_9-v60.trc
DataRate	CameraRate	NumFrames	NumMarkers	Units	OrigDataRate	OrigDataStartFrame	OrigNumFrames
100.00	100.00	      21	9	mm	100.00	1751	      7000
Frame#	Time	front left toe			Front right toe			aft left toe			aft right toe			Arm			FL body			FR body			AL Body			AR Body			
		X1	Y1	Z1	X2	Y2	Z2	X3	Y3	Z3	X4	Y4	Z4	X5	Y5	Z5	X6	Y6	Z6	X7	Y7	Z7	X8	Y8	Z8	X9	Y9	Z9	

1751	17.500	-213.22702	17.38348	-420.96616	231.05501	19.75851	-468.00790	-171.06252	17.00049	139.11444	239.01723	27.12541	110.69205	21.94546	719.11987	-759.48126	-102.64276	581.06952	-503.64185	53.16737	584.39154	-508.73581	-80.05916	566.35297	379.89575	67.44460	559.16962	377.81757	
1752	17.510	-213.31998	17.35422	-420.92426	231.33781	20.01649	-467.18771	-171.02797	17.04339	139.02884	239.00153	27.01082	110.70816	22.81116	718.81580	-759.60938	-102.42001	581.14166	-503.62817	53.63602	584.21222	-508.80649	-78.97777	566.44556	379.91690	68.17818	559.11676	377.71274	
1753	17.520	-213.32652	17.21745	-420.96118	231.11607	19.65554	-467.95865	-171.08846	17.14750	139.00523	238.91786	26.98359	110.68806	23.56638	718.37195	-759.33417	-101.73860	581.04895	-503.62228	54.25876	584.05719	-508.84967	-77.82097	566.29053	379.91354	69.26945	558.88995	377.72168	
1754	17.530	-213.27675	17.26506	-420.99252	231.46358	19.90708	-467.03125	-171.24475	17.17282	138.95776	238.82260	26.93804	110.71718	23.74494	718.02582	-759.17432	-100.80821	581.18811	-503.71213	55.08472	583.97406	-508.77185	-77.11848	566.18842	380.05966	70.47426	558.56555	377.89151	
1755	17.540	-213.25548	17.44521	-421.11768	231.26942	19.33203	-467.81836	-171.43643	17.15484	138.91530	238.73309	26.89571	110.81593	24.11063	717.89563	-758.97449	-99.48457	581.28656	-503.46268	56.35498	583.84821	-508.53436	-76.68480	565.99243	380.09995	70.65344	558.54382	378.08868	
1756	17.550	-213.27693	17.61562	-421.24808	231.39975	19.24296	-467.56870	-171.69128	17.26521	138.96675	238.63643	26.85240	110.86539	23.77498	717.76202	-758.69861	-98.39292	581.28198	-503.52481	57.56919	583.63641	-507.97095	-76.26939	565.77924	380.19159	71.12727	558.19080	378.20749	
1757	17.560	-213.30003	17.75598	-421.37064	231.39883	18.79783	-467.68741	-171.92662	17.15219	138.88583	238.49205	26.86140	110.98349	23.33291	717.62280	-758.42120	-97.26521	581.36975	-503.43335	58.97056	583.51312	-508.08014	-75.73270	565.50281	380.31784	71.38961	557.84088	378.35712	
1758	17.570	-213.32484	17.80803	-421.47906	231.33852	18.43904	-467.57611	-172.10469	16.97315	138.84052	238.34032	26.86466	111.03741	22.98555	717.42365	-758.19177	-95.49760	581.27124	-503.12170	60.37904	583.46893	-507.75778	-75.33566	565.26746	380.40295	72.10899	557.19995	378.73547	
1759	17.580	-213.33261	17.89842	-421.53189	231.32349	18.37486	-467.37573	-172.13084	16.95059	138.81776	238.28960	26.87954	111.04076	22.35588	717.43451	-758.00629	-94.16158	581.30560	-503.02698	61.80157	583.31024	-507.33456	-74.73498	564.92303	380.78375	72.67670	556.95599	379.08170	
1760	17.590	-213.37814	17.94675	-421.57083	231.18570	18.18269	-467.37131	-172.15555	17.01989	138.84477	238.23485	26.85902	111.10727	21.91091	717.34534	-757.93317	-93.06529	581.16376	-502.88959	62.96252	583.34076	-507.04657	-74.05431	564.68787	381.04904	72.99357	556.80151	379.51392	
1761	17.600	-213.39868	17.97337	-421.56796	231.23669	18.12643	-467.32474	-172.19629	17.15708	138.78371	238.17110	26.82605	111.15961	21.21519	717.36627	-757.84186	-91.66260	581.03619	-502.35901	64.32230	583.44037	-506.62033	-72.97837	564.34021	381.30649	73.86849	556.45172	379.77783	
1762	17.610	-213.45985	18.09369	-421.57700	231.15230	18.06107	-467.33951	-172.29922	17.28680	138.91342	238.14345	26.74698	111.24763	20.44034	717.39069	-757.61810	-90.52453	581.22266	-502.07538	65.44293	583.43561	-506.16013	-72.14621	564.28033	381.75687	74.93199	556.32489	380.34561	
1763	17.620	-213.58144	18.13494	-421.55600	230.92001	17.88760	-467.39883	-172.30724	17.38873	138.91241	238.11481	26.63400	111.25671	20.02919	717.36200	-757.41095	-89.52382	581.10205	-501.48230	66.50829	583.40698	-505.77240	-71.10860	564.03857	382.19681	76.18857	556.15131	380.85840	
1764	17.630	-213.64394	18.09634	-421.53134	230.90297	17.90903	-467.39502	-172.25391	17.57008	138.88921	238.17354	26.54699	111.32511	19.70122	717.28973	-757.24908	-88.55804	580.99078	-500.97818	67.19572	583.47638	-505.42111	-69.69968	563.81561	382.73669	77.44045	556.03870	381.11914	
1765	17.640	-213.71043	18.13940	-421.50647	230.82474	17.86049	-467.41107	-172.23248	17.66732	138.92059	238.31758	26.38340	111.37939	19.62885	717.28680	-756.98212	-88.17473	581.20148	-500.84344	68.27799	583.49286	-504.88254	-68.33821	563.55994	383.37088	78.93173	555.72498	381.70337	
1766	17.650	-213.71208	18.17233	-421.47360	230.80269	17.79640	-467.35403	-172.11829	17.89167	139.03021	238.44128	26.33450	111.46070	19.74346	717.28448	-756.84656	-86.73402	580.85431	-499.83252	69.34682	583.52972	-503.83383	-66.94598	563.31195	383.94986	80.26716	555.64728	382.08124	
1767	17.660	-213.71306	18.15290	-421.44785	230.78955	17.78450	-467.36005	-172.08099	18.03102	139.16396	238.48746	26.25772	111.53141	19.64202	717.24463	-756.74530	-86.01514	580.95087	-499.15097	70.00706	583.80823	-503.67429	-65.49932	563.10175	384.46414	81.40016	555.59509	382.86777	
1768	17.670	-213.80652	18.22401	-421.44504	230.53429	17.75612	-467.41855	-172.01897	18.14534	139.19226	238.37207	26.21033	111.57359	19.99425	717.19763	-756.59058	-84.79656	580.99139	-498.34552	71.03167	583.84546	-503.04715	-64.15453	562.80811	385.18576	83.26723	555.31805	383.30469	
1769	17.680	-213.89905	18.23391	-421.43411	230.29155	17.77340	-467.44836	-172.04390	18.12552	139.30966	238.31535	26.11714	111.66776	20.09476	717.16046	-756.56232	-83.82481	581.05707	-497.94348	72.10373	583.94019	-502.43079	-62.70061	562.54596	385.84277	84.47937	555.19318	383.87256	
1770	17.690	-213.87076	18.27509	-421.37552	230.18193	17.74737	-467.54602	-172.04688	18.15922	139.39949	238.31662	26.05898	111.68884	20.19309	717.13800	-756.54785	-82.59744	581.04626	-497.00339	73.38743	583.85223	-501.38214	-61.30927	562.34393	386.58527	85.96706	555.02795	384.79221	
1771	17.700	-213.86534	18.33035	-421.37225	230.16348	17.76042	-467.45724	-172.12347	18.24745	139.40155	238.20544	26.00454	111.81221	20.24480	717.09857	-756.52094	-81.47305	581.04779	-496.38727	74.71003	584.18134	-500.85620	-60.00546	562.16840	387.45813	87.18232	554.76453	385.27866	
